# xmcd CD database file
#
# Track frame offsets:
#	150
#	21673
#	43898
#	72995
#	91670
#	114675
#	140498
#	160773
#
# Disc length: 2425 seconds
#
# Revision: 0
# Processed by: cddbd v1.5.2PL0 Copyright (c) Steve Scherf et al.
# Submitted via: CDex 1.51
#
DISCID=6e097708
DTITLE=Grover Washington, Jr - Come Morning
DYEAR=1900
DGENRE=Jazz
TTITLE0=East River Drive
TTITLE1=Come Morning
TTITLE2=Be Mine (Tonight)
TTITLE3=Reaching Out
TTITLE4=Jamming
TTITLE5=Little Black Samba
TTITLE6=Making Love To You
TTITLE7=I'm All Yours
EXTD=
EXTT0=
EXTT1=
EXTT2=
EXTT3=
EXTT4=
EXTT5=
EXTT6=
EXTT7=
PLAYORDER=
